PathFileType	4	(X/Y/Z)	Static_1_OpenSim.trc																																																																																																																						
DataRate	CameraRate	NumFrames	NumMarkers	Units	OrigDataRate	OrigDataStartFrame	OrigNumFrames																																																																																																																		
100	100	7	40	mm	100	155	619																																																																																																																		
Frame#	Time	R.ASIS			R.PSIS			S2			L.PSIS			L.ASIS			R.TH1			R.TH2			R.TH3			R.MKnee			R.Knee			R.SH1			R.SH2			R.SH3			R.SH4			R.Ankle			R.MAnkle			R.Heel			R.MT5			R.MT1			L.TH1			L.TH2			L.TH3			L.TH4			L.MKnee			L.Knee			L.SH1			L.SH2			L.SH3			L.Ankle			L.MAnkle			L.Heel			L.MT5			L.MT1			R.Acr			L.Acr			C7			T10			Clav			Sternum			R.Back		
		X1	Y1	Z1	X2	Y2	Z2	X3	Y3	Z3	X4	Y4	Z4	X5	Y5	Z5	X6	Y6	Z6	X7	Y7	Z7	X8	Y8	Z8	X9	Y9	Z9	X10	Y10	Z10	X11	Y11	Z11	X12	Y12	Z12	X13	Y13	Z13	X14	Y14	Z14	X15	Y15	Z15	X16	Y16	Z16	X17	Y17	Z17	X18	Y18	Z18	X19	Y19	Z19	X20	Y20	Z20	X21	Y21	Z21	X22	Y22	Z22	X23	Y23	Z23	X24	Y24	Z24	X25	Y25	Z25	X26	Y26	Z26	X27	Y27	Z27	X28	Y28	Z28	X29	Y29	Z29	X30	Y30	Z30	X31	Y31	Z31	X32	Y32	Z32	X33	Y33	Z33	X34	Y34	Z34	X35	Y35	Z35	X36	Y36	Z36	X37	Y37	Z37	X38	Y38	Z38	X39	Y39	Z39	X40	Y40	Z40
155	1.54	899.3982	1070.147	-433.3299	692.1365	1079.4571	-534.6398	683.2139	1076.8988	-580.4192	696.743	1082.2214	-631.1114	896.0143	1067.3698	-725.9442	857.3635	737.9042	-398.5438	775.6371	737.913	-395.1653	774.9973	628.3981	-403.2476	812.0598	501.5107	-519.6418	793.6472	512.9535	-406.3007	789.7742	350.1019	-391.2156	792.4457	238.5057	-402.4415	707.5712	350.5848	-399.7822	710.7498	237.0711	-400.7555	725.3986	78.0189	-402.1776	789.7778	92.9162	-480.453	685.9254	37.1703	-474.576	823.8166	37.8657	-336.0084	898.0962	39.538	-404.3033	877.3221	765.8821	-753.3511	863.283	658.2799	-750.5741	794.0395	772.5522	-765.4146	783.4963	663.2148	-755.0778	825.9936	500.757	-643.2217	814.3218	518.2097	-751.3284	800.0217	392.3983	-782.2354	718.6162	399.4612	-772.5366	712.1462	289.8566	-774.683	752.438	83.9062	-797.324	798.3923	91.4692	-703.5592	696.4428	43.7513	-734.8626	855.0066	33.0931	-833.3787	910.9547	45.1604	-741.4424	811.039	1488.1538	-431.465	794.5388	1477.2753	-729.1948	759.3098	1504.7882	-581.3706	748.3137	1179.3834	-578.4477	901.1116	1418.3157	-584.2193	936.7039	1274.5935	-573.4754	683.1808	1401.9672	-501.6045
156	1.55	899.3508	1070.1408	-433.3421	692.1412	1079.4607	-534.6834	683.2056	1076.8883	-580.4502	696.7112	1082.2172	-631.1572	896.0056	1067.3772	-725.9573	857.3278	737.8865	-398.5737	775.6204	737.9024	-395.2068	774.976	628.3915	-403.2767	812.0754	501.5	-519.6486	793.6423	512.9509	-406.3144	789.7733	350.0919	-391.224	792.443	238.4963	-402.4457	707.5662	350.5759	-399.8116	710.7481	237.0683	-400.7764	725.3978	78.0161	-402.1725	789.7772	92.9079	-480.4567	685.9261	37.1679	-474.5782	823.8151	37.8678	-336.0105	898.0952	39.5373	-404.3029	877.3252	765.8917	-753.3734	863.2908	658.2852	-750.6069	794.0418	772.5517	-765.4592	783.5024	663.2205	-755.1124	826.0122	500.7548	-643.2479	814.3343	518.2075	-751.3558	800.0369	392.3886	-782.2485	718.6292	399.4541	-772.5606	712.1564	289.8541	-774.7059	752.437	83.899	-797.3244	798.3932	91.4685	-703.5615	696.4424	43.7494	-734.8632	855.009	33.0926	-833.3767	910.9858	45.1561	-741.4515	810.8984	1488.1577	-431.4765	794.4501	1477.2706	-729.1788	759.2299	1504.7736	-581.3547	748.3007	1179.3768	-578.4689	901.0158	1418.3213	-584.2161	936.64	1274.6127	-573.4538	683.0978	1401.9243	-501.6146
157	1.56	899.3027	1070.1344	-433.358	692.1408	1079.4646	-534.7284	683.199	1076.8782	-580.4821	696.6762	1082.2131	-631.2028	895.9959	1067.3842	-725.972	857.2893	737.8436	-398.6224	775.6049	737.8906	-395.2483	774.955	628.3851	-403.3053	812.0903	501.4895	-519.6558	793.6378	512.947	-406.33	789.7723	350.0802	-391.2349	792.4456	238.4847	-402.4505	707.5583	350.5671	-399.8404	710.7451	237.0653	-400.7953	725.3981	78.0131	-402.1666	789.7808	92.9006	-480.46	685.9273	37.1656	-474.5794	823.8148	37.8687	-336.0124	898.0955	39.5372	-404.3027	877.3171	765.8978	-753.3843	863.2936	658.2884	-750.6369	794.0411	772.5513	-765.4998	783.5028	663.2248	-755.1446	826.0273	500.7529	-643.2714	814.3439	518.2054	-751.3824	800.0497	392.3792	-782.2605	718.6392	399.4464	-772.5823	712.1633	289.8515	-774.7242	752.4365	83.8904	-797.3235	798.3954	91.4656	-703.5637	696.4416	43.7444	-734.8639	855.0137	33.0915	-833.3729	911.0273	45.1496	-741.4628	810.7582	1488.1567	-431.4866	794.3507	1477.2635	-729.1655	759.1486	1504.7588	-581.3349	748.2877	1179.3706	-578.4919	900.9209	1418.3293	-584.2118	936.5779	1274.6339	-573.4318	683.0167	1401.8802	-501.6234
158	1.57	899.2541	1070.1291	-433.3771	692.1335	1079.468	-534.7747	683.1934	1076.8679	-580.5146	696.6379	1082.2089	-631.247	895.9822	1067.3906	-725.9885	857.2493	737.7836	-398.6836	775.5906	737.8785	-395.2866	774.9348	628.3793	-403.3332	812.1044	501.4795	-519.6631	793.634	512.9418	-406.3472	789.7713	350.0676	-391.2477	792.4545	238.4705	-402.4567	707.548	350.5597	-399.8662	710.7421	237.0613	-400.8125	725.3993	78.0099	-402.1619	789.7871	92.8957	-480.463	685.9285	37.1627	-474.5792	823.8153	37.8667	-336.0129	898.0966	39.5371	-404.3029	877.2932	765.8999	-753.3797	863.2909	658.2881	-750.6638	794.0374	772.5502	-765.5356	783.4989	663.226	-755.1733	826.0407	500.7511	-643.2928	814.3513	518.2024	-751.4073	800.0599	392.3697	-782.2721	718.6467	399.438	-772.6024	712.169	289.8464	-774.739	752.4358	83.8821	-797.3221	798.3978	91.4611	-703.5646	696.4404	43.7366	-734.8641	855.0182	33.0892	-833.3689	911.0678	45.1425	-741.4727	810.6219	1488.1509	-431.4934	794.2415	1477.2544	-729.1571	759.066	1504.7434	-581.3134	748.2732	1179.3649	-578.5181	900.8283	1418.339	-584.2076	936.5164	1274.6561	-573.412	682.9368	1401.8347	-501.6307
159	1.58	899.2048	1070.1265	-433.3985	692.1196	1079.4708	-534.8218	683.1873	1076.8571	-580.5475	696.5964	1082.2043	-631.2897	895.9621	1067.397	-726.0068	857.2091	737.7152	-398.7507	775.5769	737.8679	-395.3198	774.9158	628.3746	-403.3603	812.1175	501.4702	-519.6705	793.6318	512.936	-406.3656	789.7702	350.0555	-391.2619	792.4692	238.4546	-402.4641	707.5356	350.5554	-399.8871	710.7397	237.0562	-400.8282	725.4005	78.0069	-402.1592	789.7935	92.8937	-480.4659	685.929	37.1598	-474.5781	823.8159	37.8616	-336.0113	898.0978	39.5369	-404.3039	877.2504	765.8987	-753.3571	863.283	658.2844	-750.6878	794.0315	772.5476	-765.5667	783.4921	663.2236	-755.1984	826.0538	500.7497	-643.313	814.3572	518.1978	-751.4292	800.0679	392.3606	-782.2839	718.6525	399.4289	-772.6217	712.1747	289.838	-774.7517	752.4346	83.8756	-797.3206	798.3997	91.4564	-703.5637	696.4388	43.7279	-734.8633	855.0206	33.0861	-833.3657	911.0992	45.1366	-741.4792	810.4916	1488.1411	-431.4959	794.1246	1477.2443	-729.1551	758.9818	1504.7278	-581.293	748.2564	1179.3596	-578.5475	900.7391	1418.3506	-584.2042	936.4546	1274.679	-573.3964	682.8577	1401.7882	-501.6367
160	1.59	899.1547	1070.1273	-433.421	692.0986	1079.4728	-534.8684	683.1791	1076.8456	-580.5806	696.5514	1082.2001	-631.3309	895.9345	1067.4043	-726.027	857.1692	737.6435	-398.8206	775.5636	737.8598	-395.3476	774.8989	628.3715	-403.3867	812.1299	501.4621	-519.678	793.6321	512.9305	-406.3845	789.7695	350.0454	-391.2767	792.4876	238.4388	-402.4721	707.5218	350.5551	-399.9019	710.7386	237.0504	-400.8425	725.4014	78.0045	-402.1582	789.7979	92.8946	-480.4688	685.9287	37.158	-474.5767	823.816	37.8552	-336.0084	898.0984	39.5368	-404.3054	877.1888	765.8959	-753.3168	863.2716	658.2791	-750.7095	794.0237	772.5438	-765.594	783.4841	663.2188	-755.2203	826.0665	500.7496	-643.3324	814.3622	518.1927	-751.4465	800.0741	392.3528	-782.2958	718.6571	399.4199	-772.6408	712.1809	289.8273	-774.7631	752.4333	83.872	-797.3184	798.4001	91.453	-703.561	696.4369	43.7201	-734.8616	855.0196	33.083	-833.3639	911.1178	45.1333	-741.4822	810.3684	1488.129	-431.4936	794.0037	1477.2346	-729.1595	758.8961	1504.7135	-581.2755	748.2372	1179.3544	-578.5791	900.6538	1418.3656	-584.2015	936.3924	1274.7026	-573.386	682.779	1401.7421	-501.6412
161	1.6	899.1036	1070.1317	-433.4441	692.0695	1079.4739	-534.913	683.1674	1076.8334	-580.6136	696.5034	1082.196	-631.3701	895.8994	1067.4132	-726.0486	857.13	737.5707	-398.8925	775.551	737.8542	-395.3709	774.8856	628.3696	-403.4122	812.1423	501.4558	-519.6858	793.6359	512.9258	-406.4033	789.7708	350.0382	-391.2909	792.507	238.425	-402.4805	707.5079	350.5584	-399.9091	710.7394	237.0441	-400.8551	725.402	78.0031	-402.1583	789.8002	92.8984	-480.4721	685.928	37.1582	-474.5753	823.8151	37.8495	-336.0052	898.0985	39.5374	-404.3069	877.1131	765.8931	-753.264	863.2584	658.275	-750.7294	794.0144	772.54	-765.6192	783.4758	663.2136	-755.24	826.0774	500.7518	-643.3501	814.3675	518.1885	-751.4575	800.0791	392.3473	-782.3076	718.6606	399.4118	-772.6599	712.1876	289.8154	-774.7733	752.4325	83.8722	-797.3154	798.3994	91.4516	-703.5567	696.4352	43.7149	-734.8594	855.0158	33.0812	-833.363	911.1223	45.1327	-741.4818	810.2529	1488.1158	-431.4864	793.8841	1477.2275	-729.1685	758.8094	1504.7024	-581.2617	748.2164	1179.349	-578.6107	900.5731	1418.3849	-584.1994	936.3304	1274.7269	-573.3807	682.7007	1401.6984	-501.6443
